<?xml version="1.0" encoding="UTF-8"?>
<svg width="26px" height="26px" viewBox="0 0 26 26" version="1.1" xmlns="http://www.w3.org/2000/svg" xmlns:xlink="http://www.w3.org/1999/xlink">
    <!-- Generator: Sketch 52.2 (67145) - http://www.bohemiancoding.com/sketch -->
    <title>带白底 copy@2x</title>
    <desc>Created with Sketch.</desc>
    <g id="V2.1" stroke="none" stroke-width="1" fill="none" fill-rule="evenodd">
        <g id="他人看个人中心-copy" transform="translate(-82.000000, -183.000000)">
            <g id="带白底-copy" transform="translate(82.000000, 183.000000)">
                <g id="分组-4">
                    <circle id="椭圆形" fill="#FFFFFF" fill-rule="nonzero" cx="13" cy="13" r="13"></circle>
                    <g id="企业认证" transform="translate(0.213115, 0.213115)" fill="#EFC733">
                        <path d="M19.7073729,16.7865094 C20.3886883,15.6101807 20.7786885,14.2440777 20.7786885,12.7868852 C20.7786885,11.1151301 20.2653825,9.56326404 19.3877814,8.28029784 C19.7080122,8.03965642 20.0264685,7.78642213 20.3431505,7.52059498 C20.6670592,7.24870161 20.9505647,7.02422225 21.1936669,6.84715689 L22.3995651,7.88898022 L22.5453609,9.61616431 L23.442623,11.0991822 L23.0475537,12.7868852 L23.442623,14.4745883 L22.5453609,15.9576062 L22.3995651,17.6847903 L21.0879404,18.8179549 L20.4155512,20.4155512 L18.8179549,21.0879404 L17.6847903,22.3995651 L15.9576062,22.5453609 L14.4745883,23.442623 L12.7868852,23.0475537 L11.0991822,23.442623 L9.61616431,22.5453609 L7.88898022,22.3995651 L6.75581562,21.0879404 L5.15821932,20.4155512 L4.48583006,18.8179549 L3.17420539,17.6847903 L3.02840961,15.9576062 L2.13114754,14.4745883 L2.52621675,12.7868852 L2.13114754,11.0991822 L3.02840961,9.61616431 L3.17420539,7.88898022 L4.48583006,6.75581562 L5.15821932,5.15821932 L6.75581562,4.48583006 L7.88898022,3.17420539 L9.61616431,3.02840961 L11.0991822,2.13114754 L12.7868852,2.52621675 L14.4745883,2.13114754 L15.9576062,3.02840961 L17.6847903,3.17420539 L18.1715764,3.73765455 C16.589119,3.79701727 15.2039866,4.18081327 14.0161793,4.88904256 C13.6154645,4.82717882 13.2049232,4.79508197 12.7868852,4.79508197 C8.37313417,4.79508197 4.79508197,8.37313417 4.79508197,12.7868852 C4.79508197,17.2006363 8.37313417,20.7786885 12.7868852,20.7786885 C15.5882666,20.7786885 18.052998,19.3373185 19.4799202,17.1557377 L18.912917,17.1557377 L19.0394911,15.9342484 C19.0669006,15.6652118 19.2372631,15.1390907 18.4147543,15.1588231 C18.1300741,15.165814 17.9889038,15.2053914 17.9889038,15.2053914 C17.9889038,15.2053914 17.9641684,15.5304679 17.9341962,15.7706389 L17.7907975,17.1557377 L17.0491803,17.1557377 L17.1963673,15.7905968 L17.2936377,14.7296725 C19.675927,14.2743624 19.8814985,15.0925223 19.8078493,15.816418 L19.7073729,16.7865094 Z M23.442623,3.8560858 C23.0450442,4.31206203 22.6040521,4.78276744 22.1158466,5.25658023 C22.0415478,5.32868859 18.1362974,5.85626158 17.7593434,6.3036292 C17.3823894,6.75099681 20.7626723,6.46786262 20.6604152,6.5510642 C20.1591545,6.95891521 19.6197042,7.36112556 19.0395781,7.75009244 C18.9352453,7.82004623 15.3597006,8.00080976 14.9929809,8.36936769 C14.6262612,8.73792562 17.3546606,8.77288387 17.2194764,8.84534337 C15.6575338,9.68255364 13.8371101,10.3584511 11.7841343,10.9182626 C10.4303782,11.2874088 9.29341414,12.5860831 8.37324208,14.8142855 C7.94782657,15.8953647 7.67782598,16.5963297 7.5632403,16.9171806 C7.49995365,17.0980541 7.17900753,17.211921 6.94046615,17.1271883 C6.70192476,17.0424556 6.55057758,16.7477104 6.62612173,16.50949 C8.23153775,11.968771 10.7883095,8.39429737 13.7065793,5.73517754 C14.3610227,5.13885045 15.2970517,4.67040366 16.0604687,4.49098957 C19.2605099,3.73893333 21.3510129,3.82425322 23.442623,3.8560858 Z M11.0436425,16.5487995 C11.2613638,16.6293645 11.715395,16.7094795 12.0826048,16.7094795 C12.4781985,16.7094795 12.6984799,16.5985338 12.7160668,16.4263767 C12.7320953,16.2692973 12.5701401,16.2480309 12.123344,16.1409109 C11.5060219,15.9876573 11.1120978,15.7503505 11.1507222,15.3712673 C11.1955799,14.9310852 11.7773943,14.5983607 12.670096,14.5983607 C13.1053158,14.5983607 13.5272899,14.6294164 13.7459016,14.7019925 L13.6708791,15.2570585 C13.5289596,15.2070992 12.9856582,15.1376738 12.6182258,15.1376738 C12.2456731,15.1376738 12.0527738,15.2563834 12.0394167,15.3864577 C12.022609,15.5511884 12.2162874,15.5588398 12.7002608,15.6892516 C13.3556508,15.857583 13.6422726,16.0946648 13.6047613,16.4622708 C13.5607941,16.894689 13.0373058,17.2622951 11.9921102,17.2622951 C11.5570016,17.2622951 11.1820001,17.1818426 10.9754098,17.1015026 L11.0436425,16.5487995 Z M14.3229111,14.6356662 C14.4952977,14.6171805 14.7600908,14.5983607 15.1244072,14.5983607 C15.732731,14.5983607 16.2245864,14.7029275 16.5291437,14.9227517 C16.8026352,15.127765 16.9846239,15.4596171 16.9342409,15.9404686 C16.8876988,16.3879121 16.652164,16.7011671 16.3090852,16.8949331 C15.9952647,17.0776745 15.5997696,17.1557377 15.0051148,17.1557377 C14.6544673,17.1557377 14.319974,17.1370293 14.0655738,17.0998351 L14.3229111,14.6356662 Z M14.8114754,16.6009375 C14.8705346,16.6119989 14.9481422,16.6229508 15.1013092,16.6229508 C15.7143184,16.6229508 16.1465087,16.3325067 16.1899781,15.9242203 C16.2530201,15.334023 15.8696475,15.1275799 15.2237517,15.1311941 C15.140113,15.1311941 15.0238153,15.1311941 14.9622527,15.1420364 L14.8114754,16.6009375 Z M10.6700188,17.1791688 C10.541067,17.2285772 10.2739885,17.2622951 9.90084487,17.2622951 C8.82769142,17.2622951 8.24846683,16.7053382 8.31692523,15.969109 C8.39889382,15.0918879 9.25699313,14.5983607 10.1965569,14.5983607 C10.5604249,14.5983607 10.7746725,14.6307432 10.9754098,14.6850479 L10.9109843,15.2760565 C10.7774955,15.2263143 10.4645428,15.1806894 10.211277,15.1806894 C9.65846786,15.1806894 9.18893802,15.3627437 9.13509887,15.9386182 C9.08710741,16.4536226 9.41669579,16.6997742 10.0385682,16.6997742 C10.2550339,16.6997742 10.5742376,16.6654999 10.7217407,16.6159802 L10.6700188,17.1791688 Z" id="Combined-Shape"></path>
                    </g>
                </g>
            </g>
        </g>
    </g>
</svg>