<?xml version="1.0" encoding="UTF-8"?>
<svg width="20px" height="20px" viewBox="0 0 20 20" version="1.1" xmlns="http://www.w3.org/2000/svg" xmlns:xlink="http://www.w3.org/1999/xlink">
    <!-- Generator: Sketch 52.2 (67145) - http://www.bohemiancoding.com/sketch -->
    <title>icon / 键盘</title>
    <desc>Created with Sketch.</desc>
    <g id="组件" stroke="none" stroke-width="1" fill="none" fill-rule="evenodd">
        <g id="评论新页工具栏——有表情" transform="translate(-339.000000, -111.000000)">
            <g id="icon-/-key-/-键盘" transform="translate(339.000000, 111.000000)">
                <circle id="Oval-6-Copy" stroke="#4D4D4D" stroke-width="1.4" cx="10" cy="10" r="9.16666667"></circle>
                <path d="M5.91666667,6.25 L6.58333333,6.25 C6.85947571,6.25 7.08333333,6.47385763 7.08333333,6.75 L7.08333333,7.41666667 C7.08333333,7.69280904 6.85947571,7.91666667 6.58333333,7.91666667 L5.91666667,7.91666667 C5.64052429,7.91666667 5.41666667,7.69280904 5.41666667,7.41666667 L5.41666667,6.75 C5.41666667,6.47385763 5.64052429,6.25 5.91666667,6.25 Z M5.91666667,9.58333333 L6.58333333,9.58333333 C6.85947571,9.58333333 7.08333333,9.80719096 7.08333333,10.0833333 L7.08333333,10.75 C7.08333333,11.0261424 6.85947571,11.25 6.58333333,11.25 L5.91666667,11.25 C5.64052429,11.25 5.41666667,11.0261424 5.41666667,10.75 L5.41666667,10.0833333 C5.41666667,9.80719096 5.64052429,9.58333333 5.91666667,9.58333333 Z M8.41666667,6.25 L9.08333333,6.25 C9.35947571,6.25 9.58333333,6.47385763 9.58333333,6.75 L9.58333333,7.41666667 C9.58333333,7.69280904 9.35947571,7.91666667 9.08333333,7.91666667 L8.41666667,7.91666667 C8.14052429,7.91666667 7.91666667,7.69280904 7.91666667,7.41666667 L7.91666667,6.75 C7.91666667,6.47385763 8.14052429,6.25 8.41666667,6.25 Z M8.41666667,9.58333333 L9.08333333,9.58333333 C9.35947571,9.58333333 9.58333333,9.80719096 9.58333333,10.0833333 L9.58333333,10.75 C9.58333333,11.0261424 9.35947571,11.25 9.08333333,11.25 L8.41666667,11.25 C8.14052429,11.25 7.91666667,11.0261424 7.91666667,10.75 L7.91666667,10.0833333 C7.91666667,9.80719096 8.14052429,9.58333333 8.41666667,9.58333333 Z M10.9166667,6.25 L11.5833333,6.25 C11.8594757,6.25 12.0833333,6.47385763 12.0833333,6.75 L12.0833333,7.41666667 C12.0833333,7.69280904 11.8594757,7.91666667 11.5833333,7.91666667 L10.9166667,7.91666667 C10.6405243,7.91666667 10.4166667,7.69280904 10.4166667,7.41666667 L10.4166667,6.75 C10.4166667,6.47385763 10.6405243,6.25 10.9166667,6.25 Z M10.9166667,9.58333333 L11.5833333,9.58333333 C11.8594757,9.58333333 12.0833333,9.80719096 12.0833333,10.0833333 L12.0833333,10.75 C12.0833333,11.0261424 11.8594757,11.25 11.5833333,11.25 L10.9166667,11.25 C10.6405243,11.25 10.4166667,11.0261424 10.4166667,10.75 L10.4166667,10.0833333 C10.4166667,9.80719096 10.6405243,9.58333333 10.9166667,9.58333333 Z M13.4166667,6.25 L14.0833333,6.25 C14.3594757,6.25 14.5833333,6.47385763 14.5833333,6.75 L14.5833333,7.41666667 C14.5833333,7.69280904 14.3594757,7.91666667 14.0833333,7.91666667 L13.4166667,7.91666667 C13.1405243,7.91666667 12.9166667,7.69280904 12.9166667,7.41666667 L12.9166667,6.75 C12.9166667,6.47385763 13.1405243,6.25 13.4166667,6.25 Z M13.4166667,9.58333333 L14.0833333,9.58333333 C14.3594757,9.58333333 14.5833333,9.80719096 14.5833333,10.0833333 L14.5833333,10.75 C14.5833333,11.0261424 14.3594757,11.25 14.0833333,11.25 L13.4166667,11.25 C13.1405243,11.25 12.9166667,11.0261424 12.9166667,10.75 L12.9166667,10.0833333 C12.9166667,9.80719096 13.1405243,9.58333333 13.4166667,9.58333333 Z" id="Combined-Shape" fill="#4D4D4D" fill-rule="evenodd"></path>
                <rect id="Rectangle-29-Copy-8" fill="#4D4D4D" fill-rule="evenodd" x="7.08333333" y="12.9166667" width="5.83333333" height="1.66666667" rx="0.5"></rect>
            </g>
        </g>
    </g>
</svg>