<?xml version="1.0" encoding="UTF-8"?>
<svg width="34px" height="26px" viewBox="0 0 34 26" version="1.1" xmlns="http://www.w3.org/2000/svg" xmlns:xlink="http://www.w3.org/1999/xlink">
    <!-- Generator: Sketch 52.2 (67145) - http://www.bohemiancoding.com/sketch -->
    <title>皇冠 copy</title>
    <desc>Created with Sketch.</desc>
    <g id="V2.1" stroke="none" stroke-width="1" fill="none" fill-rule="evenodd">
        <g id="他人看个人中心-copy" transform="translate(-45.000000, -104.000000)">
            <g id="迷你皇冠" transform="translate(45.000000, 104.000000)">
                <g id="Group-9">
                    <path d="M29.4730704,10.6452589 C29.2631503,10.2955968 29.1428571,9.8887435 29.1428571,9.45454545 C29.1428571,8.14914514 30.2301656,7.09090909 31.5714286,7.09090909 C32.9126915,7.09090909 34,8.14914514 34,9.45454545 C34,10.7599458 32.9126915,11.8181818 31.5714286,11.8181818 C31.5522281,11.8181818 31.5330796,11.817965 31.5139857,11.8175336 L30.0279082,23.97652 C29.8871331,25.1283327 28.8112238,26 27.5303029,26 L6.51729876,26 C5.23966365,26 4.16541443,25.1326708 4.02065361,23.9842544 L2.48700462,11.8175111 C2.46758246,11.8179574 2.44810387,11.8181818 2.42857143,11.8181818 C1.08730846,11.8181818 0,10.7599458 0,9.45454545 C0,8.14914514 1.08730846,7.09090909 2.42857143,7.09090909 C3.76983439,7.09090909 4.85714286,8.14914514 4.85714286,9.45454545 C4.85714286,9.89038371 4.73593911,10.2986702 4.52454681,10.6492191 L10.5049703,14.2561596 L15.3972992,4.13952918 C14.8909757,3.70635081 14.5714286,3.07131292 14.5714286,2.36363636 C14.5714286,1.05823605 15.658737,0 17,0 C18.341263,0 19.4285714,1.05823605 19.4285714,2.36363636 C19.4285714,3.07426049 19.1063568,3.71163958 18.5963644,4.1449314 L23.4860808,14.2561596 L29.4730704,10.6452589 Z" id="Combined-Shape-Copy-11" fill="#FDD840"></path>
                    <path d="M29.1428571,9.45454545 C29.1428571,8.14914514 30.2301656,7.09090909 31.5714286,7.09090909 C32.9126915,7.09090909 34,8.14914514 34,9.45454545 C34,10.7599458 32.9126915,11.8181818 31.5714286,11.8181818 C31.5522281,11.8181818 31.5330796,11.817965 31.5139857,11.8175336 L30.0279082,23.97652 C29.8871331,25.1283327 28.8112238,26 27.5303029,26 L17.0238008,26 C17.0079336,21.4662346 17,12.7995679 17,0 C18.341263,0 19.4285714,1.05823605 19.4285714,2.36363636 C19.4285714,3.07426049 19.1063568,3.71163958 18.5963644,4.1449314 L23.4860808,14.2561596 L29.4730704,10.6452589 C29.2631503,10.2955968 29.1428571,9.8887435 29.1428571,9.45454545 Z" id="Combined-Shape-Copy-15" fill="#FFBE00"></path>
                </g>
            </g>
        </g>
    </g>
</svg>