<?xml version="1.0" encoding="UTF-8"?>
<svg width="60px" height="60px" viewBox="0 0 60 60" version="1.1" xmlns="http://www.w3.org/2000/svg" xmlns:xlink="http://www.w3.org/1999/xlink">
    <!-- Generator: Sketch 52.2 (67145) - http://www.bohemiancoding.com/sketch -->
    <title>分组 13@2x</title>
    <desc>Created with Sketch.</desc>
    <g id="V2.1" stroke="none" stroke-width="1" fill="none" fill-rule="evenodd">
        <g id="详情页——0.6间距" transform="translate(-158.000000, -2452.000000)">
            <g id="分组-13" transform="translate(158.000000, 2452.000000)">
                <circle id="椭圆形" fill="#D8D8D8" fill-rule="nonzero" cx="30" cy="30" r="30"></circle>
                <g id="分组-12" transform="translate(16.000000, 16.000000)" fill="#FFFFFF">
                    <path d="M18.5796763,11.2013175 L24.8616901,11.2013175 C26.5949308,11.2013175 28,12.5942093 28,14.3124286 C28,14.450617 27.9907125,14.588652 27.9721992,14.7256163 L26.5425914,25.3020766 C26.3337935,26.8467953 25.0042326,28 23.4320823,28 L7.80497657,28 C6.07173587,28 4.66666667,26.6071081 4.66666667,24.8888889 L4.66666667,14.3124286 C4.66666667,12.7866795 5.77458256,11.5174554 7.23638532,11.2522504 C7.27402817,11.2236099 7.30250033,11.2077535 7.32017988,11.2060339 C11.2022272,10.8284424 14.2740018,7.55692215 14.2740018,3.62830787 C14.2740018,3.35790378 14.2596346,3.09080977 14.2316122,2.82772807 C14.0543367,1.66729955 14.6971171,0.66550312 15.6190177,0.23794876 C16.5409183,-0.189605599 18.1585406,-0.186187898 18.9800074,1.48894019 C19.6035586,2.85012508 19.9506477,4.36094404 19.9506477,5.95172917 C19.9506477,7.85601857 19.4532729,9.64571733 18.5796763,11.2013175 Z M1.4,11.2 C2.17319865,11.2 2.8,11.9029548 2.8,12.7700935 L2.8,26.4299065 C2.8,27.2970452 2.17319865,28 1.4,28 C0.62680135,28 9.1038288e-14,27.2970452 9.1038288e-14,26.4299065 L9.1038288e-14,12.7700935 C9.1038288e-14,11.9029548 0.62680135,11.2 1.4,11.2 Z" id="合并形状"></path>
                </g>
            </g>
        </g>
    </g>
</svg>