<?xml version="1.0" encoding="UTF-8"?>
<svg width="19px" height="19px" viewBox="0 0 19 19" version="1.1" xmlns="http://www.w3.org/2000/svg" xmlns:xlink="http://www.w3.org/1999/xlink">
    <!-- Generator: Sketch 52.2 (67145) - http://www.bohemiancoding.com/sketch -->
    <title>首页</title>
    <desc>Created with Sketch.</desc>
    <g id="V2.1" stroke="none" stroke-width="1" fill="none" fill-rule="evenodd">
        <g id="详情页——0.6间距" transform="translate(-70.000000, -31.000000)" fill="#333333" fill-rule="nonzero">
            <g id="回首页" transform="translate(69.000000, 30.000000)">
                <path d="M18.5998946,18.2669082 C18.5992199,18.2667802 18.5990338,18.2662766 18.5990338,18.2645712 L18.5990338,7.97581148 C18.5990338,7.8279269 18.4609478,7.56697122 18.3386,7.48379178 L11.4131749,2.77547168 C11.1806044,2.61735628 10.7392157,2.61767565 10.5071149,2.77547168 L3.58168989,7.48379178 C3.46016379,7.56641253 3.32125604,7.82847191 3.32125604,7.97581148 L3.32125604,18.2645712 C3.32125604,18.2667934 3.3213699,18.2669082 3.31823837,18.2669082 L7.63888889,18.2669082 L7.63888889,14.9472261 C7.63888889,13.1130815 9.12784785,11.6243961 10.9601449,11.6243961 C12.7945324,11.6243961 14.281401,13.1121198 14.281401,14.9472261 L14.281401,18.2669082 L18.5998946,18.2669082 Z M12.9528986,14.9472261 C12.9528986,13.8456604 12.0606498,12.9528986 10.9601449,12.9528986 C9.86150483,12.9528986 8.9673913,13.8468478 8.9673913,14.9472261 L8.9673913,19.5954106 L3.31823837,19.5954106 C2.58508649,19.5954106 1.99275362,18.9979576 1.99275362,18.2645712 L1.99275362,7.97581148 C1.99275362,7.38827989 2.3496606,6.71494943 2.83476478,6.38514646 L9.76018983,1.67682635 C10.4427687,1.21276824 11.4764211,1.21202033 12.1601,1.67682635 L19.0855251,6.38514646 C19.5717423,6.71570614 19.9275362,7.3880876 19.9275362,7.97581148 L19.9275362,18.2645712 C19.9275362,18.9985281 19.3359205,19.5954106 18.6020515,19.5954106 L12.9528986,19.5954106 L12.9528986,14.9472261 Z" id="Combined-Shape"></path>
            </g>
        </g>
    </g>
</svg>