<?xml version="1.0" encoding="UTF-8"?>
<svg width="24px" height="22px" viewBox="0 0 24 22" version="1.1" xmlns="http://www.w3.org/2000/svg" xmlns:xlink="http://www.w3.org/1999/xlink">
    <!-- Generator: Sketch 52.2 (67145) - http://www.bohemiancoding.com/sketch -->
    <title>icon / 论坛 1 copy 2</title>
    <desc>Created with Sketch.</desc>
    <g id="V2.1" stroke="none" stroke-width="1" fill="none" fill-rule="evenodd">
        <g id="V2.1首页——regular" transform="translate(-82.000000, -625.000000)" fill="#CA0C16">
            <g id="分组-3-copy-2" transform="translate(0.000000, 618.000000)">
                <g id="首页主页点击" transform="translate(80.000000, 4.000000)">
                    <path d="M14.018142,6.3343154 L14,6.31640625 L13.7495658,6.56362612 L14.018142,6.3343154 Z M24.5,16.333322 L24.5,22.1666667 C24.5,23.4553311 23.4553311,24.5 22.1666667,24.5 L5.83333333,24.5 C4.54466892,24.5 3.5,23.4553311 3.5,22.1666667 L3.5,16.333322 C3.20182515,16.3320146 2.90405276,16.2172181 2.67655125,15.9889324 C2.21892736,15.5297311 2.21892736,14.7852187 2.67655125,14.3260174 L13.1301778,3.84440096 C13.369475,3.60427896 13.6865188,3.48971971 14,3.50072321 C14.3134812,3.48971971 14.630525,3.60427896 14.8698222,3.84440096 L25.3234487,14.3260174 C25.7810726,14.7852187 25.7810726,15.5297311 25.3234487,15.9889324 C25.0959472,16.2172181 24.7981748,16.3320146 24.5,16.333322 Z" id="形状"></path>
                </g>
            </g>
        </g>
    </g>
</svg>