<?xml version="1.0" encoding="UTF-8"?>
<svg width="24px" height="22px" viewBox="0 0 24 22" version="1.1" xmlns="http://www.w3.org/2000/svg" xmlns:xlink="http://www.w3.org/1999/xlink">
    <!-- Generator: Sketch 52.2 (67145) - http://www.bohemiancoding.com/sketch -->
    <title>icon / 论坛 1 copy 2</title>
    <desc>Created with Sketch.</desc>
    <g id="V2.1" stroke="none" stroke-width="1" fill="none" fill-rule="evenodd">
        <g id="V2.1首页——regular" transform="translate(-82.000000, -625.000000)" fill="#999999">
            <g id="分组-3-copy-2" transform="translate(0.000000, 618.000000)">
                <g id="首页主页——未点击" transform="translate(80.000000, 4.000000)">
                    <path d="M5.83333333,14 L5.83333333,22.1666667 L22.1666667,22.1666667 L22.1666667,14 C22.1666667,13.3556678 22.6890011,12.8333333 23.3333333,12.8333333 C23.9776655,12.8333333 24.5,13.3556678 24.5,14 L24.5,22.1666667 C24.5,23.4553311 23.4553311,24.5 22.1666667,24.5 L5.83333333,24.5 C4.54466892,24.5 3.5,23.4553311 3.5,22.1666667 L3.5,14 C3.5,13.3556678 4.02233446,12.8333333 4.66666667,12.8333333 C5.31099887,12.8333333 5.83333333,13.3556678 5.83333333,14 Z" id="Combined-Shape"></path>
                    <path d="M12.8333333,7.46809851 L4.33375395,15.9889324 C3.87613006,16.4481337 3.13417514,16.4481337 2.67655125,15.9889324 C2.21892736,15.5297311 2.21892736,14.7852187 2.67655125,14.3260174 L13.1301778,3.84440096 C13.369475,3.60427896 13.6865188,3.48971971 14,3.50072321 C14.3134812,3.48971971 14.630525,3.60427896 14.8698222,3.84440096 L25.3234487,14.3260174 C25.7810726,14.7852187 25.7810726,15.5297311 25.3234487,15.9889324 C24.8658249,16.4481337 24.1238699,16.4481337 23.666246,15.9889324 L15.1666667,7.46809851 L14,6.31640625 L12.8333333,7.46809851 Z" id="Combined-Shape"></path>
                </g>
            </g>
        </g>
    </g>
</svg>