<?xml version="1.0" encoding="UTF-8"?>
<svg width="22px" height="22px" viewBox="0 0 22 22" version="1.1" xmlns="http://www.w3.org/2000/svg" xmlns:xlink="http://www.w3.org/1999/xlink">
    <!-- Generator: Sketch 52.2 (67145) - http://www.bohemiancoding.com/sketch -->
    <title>分组 6@2x</title>
    <desc>Created with Sketch.</desc>
    <g id="V2.1" stroke="none" stroke-width="1" fill="none" fill-rule="evenodd">
        <g id="个人中心" transform="translate(-16.000000, -308.000000)" fill-rule="nonzero">
            <g id="分组-6" transform="translate(16.000000, 308.000000)">
                <rect id="矩形-copy-7" fill="#E54A52" x="0" y="0" width="22" height="22" rx="4"></rect>
                <g id="V2.1写博客" transform="translate(1.000000, 1.000000)" fill="#FFFFFF">
                    <path d="M15.0460196,14.9733733 C15.5388586,14.9733733 15.9387988,15.3708537 15.9387988,15.8616866 C15.9387988,16.3525195 15.5388586,16.75 15.0460196,16.75 L2.55944592,16.75 C2.06660694,16.75 1.66666667,16.3525195 1.66666667,15.8616866 C1.66666794,15.8598342 1.66666794,15.8598342 1.66667416,15.8593231 C1.66627516,15.7576374 1.68188457,15.6572106 1.7110262,15.5661942 C3.19231433,11.4030695 5.57517712,7.87769824 8.61859156,5.12209675 C9.25072387,4.54974462 10.1748474,4.07171755 10.973953,3.88510459 C12.3346197,3.56735183 13.5575366,3.38653285 14.7728078,3.30523912 C15.690478,3.24385297 16.3659258,3.23951175 17.8040768,3.26341058 C17.9890804,3.26648493 18.064045,3.26770476 18.1631331,3.26920823 L18.1691869,3.26929994 L18.5298449,3.27475412 L18.2919419,3.54587429 C17.8821685,4.01286231 17.4514791,4.46586607 16.9964449,4.90469065 C16.9469124,4.95245859 16.9296574,4.95605034 16.704225,4.99231413 C16.6044041,5.00837163 16.5457125,5.01707399 16.213875,5.06558109 C15.591642,5.15653737 15.2010563,5.2176747 14.7686665,5.29640632 C13.7379415,5.48408575 13.0313502,5.68651503 12.8121482,5.87561522 C12.8480302,5.88642853 12.8976116,5.89746907 12.958693,5.9065834 C13.193665,5.94164506 13.557198,5.94721021 14.0318878,5.92925961 C14.2220524,5.92206846 14.4207984,5.91158677 14.6567043,5.89702547 C14.6803609,5.89556527 15.1543744,5.86498215 15.2505651,5.85991246 C15.3315875,5.8556422 15.3884882,5.8537428 15.4279973,5.8543367 C15.4573628,5.85477811 15.4791966,5.85637872 15.5009066,5.8612192 C15.5413191,5.87022963 15.5726275,5.88390362 15.6048945,5.92671514 C15.6395419,5.97268501 15.6485482,6.03327475 15.6281203,6.08766048 C15.6156958,6.12073862 15.5970104,6.14315189 15.5749265,6.16100669 C15.0693641,6.56975465 14.5420207,6.95815613 13.9916281,7.32485166 C13.9335676,7.36353415 13.8916282,7.36692313 13.5994121,7.3791475 C13.5570387,7.38092012 13.0452214,7.39952851 12.8601339,7.40761176 C12.5115863,7.42283372 12.2039296,7.44118413 11.9119724,7.46593149 C10.9438333,7.54799453 10.2869485,7.69529056 10.0989993,7.89636526 C10.0928939,7.90289699 10.0878149,7.9087751 10.0836667,7.91392659 C10.1032319,7.92431601 10.1363685,7.93867484 10.1825634,7.95276821 C10.3574416,8.00612091 10.6467214,8.03764191 11.0271532,8.05088525 C11.2404182,8.0583093 11.4264468,8.05956513 11.7492192,8.05828415 C11.9400892,8.05752665 11.994941,8.05757574 12.0549793,8.05921131 C12.0980503,8.06038465 12.1281669,8.06232105 12.1520731,8.06626387 C12.1933127,8.07306546 12.2187963,8.08103961 12.2538545,8.11452222 C12.3093175,8.16749264 12.324072,8.25330882 12.2822946,8.32325536 C12.2625574,8.35630074 12.240102,8.37389695 12.2135181,8.38805588 C10.5976558,9.24868628 9.27162228,9.81234933 7.40984812,10.4098345 C6.86906672,10.5833834 6.23976221,11.1670411 5.56877637,12.0565218 C5.08689969,12.6953133 4.65336663,13.3886445 4.21230039,14.1696816 C4.04757092,14.4613835 3.91448603,14.7242209 3.80310521,14.9733733 L15.0460196,14.9733733 Z" id="合并形状"></path>
                </g>
            </g>
        </g>
    </g>
</svg>