<?xml version="1.0" encoding="UTF-8"?>
<svg width="22px" height="22px" viewBox="0 0 22 22" version="1.1" xmlns="http://www.w3.org/2000/svg" xmlns:xlink="http://www.w3.org/1999/xlink">
    <!-- Generator: Sketch 52.2 (67145) - http://www.bohemiancoding.com/sketch -->
    <title>分组 9@2x</title>
    <desc>Created with Sketch.</desc>
    <g id="V2.1" stroke="none" stroke-width="1" fill="none" fill-rule="evenodd">
        <g id="个人中心" transform="translate(-16.000000, -418.000000)" fill-rule="nonzero">
            <g id="分组-9" transform="translate(16.000000, 418.000000)">
                <rect id="矩形-copy-2" fill="#42D3A4" x="0" y="0" width="22" height="22" rx="4"></rect>
                <g id="V2.1下载" transform="translate(1.000000, 1.000000)" fill="#FFFFFF">
                    <path d="M15.1885965,15.1885965 L15.1885965,13.9912281 C15.1885965,13.3299398 15.7246766,12.7938596 16.3859649,12.7938596 C17.0472532,12.7938596 17.5833333,13.3299398 17.5833333,13.9912281 L17.5833333,15.5877193 C17.5833333,16.6898665 16.6898665,17.5833333 15.5877193,17.5833333 L4.4122807,17.5833333 C3.3101335,17.5833333 2.41666667,16.6898665 2.41666667,15.5877193 L2.41666667,13.9912281 C2.41666667,13.3299398 2.95274677,12.7938596 3.61403509,12.7938596 C4.27532341,12.7938596 4.81140351,13.3299398 4.81140351,13.9912281 L4.81140351,15.1885965 L15.1885965,15.1885965 Z M8.80263158,10.3102962 L8.80263158,3.61403509 C8.80263158,2.95274677 9.33871168,2.41666667 10,2.41666667 C10.6612883,2.41666667 11.1973684,2.95274677 11.1973684,3.61403509 L11.1973684,10.3102962 L14.7345485,6.76092384 C15.203637,6.29021837 15.9647506,6.29021837 16.4338392,6.76092384 C16.9021706,7.23086951 16.9021706,7.992235 16.4338392,8.46218067 L10.8778491,14.0373218 C10.6427295,14.2732518 10.3257685,14.3976765 10,14.3900206 C9.67423147,14.3976765 9.35727047,14.2732518 9.12215093,14.0373218 L3.56616081,8.46218067 C3.09782944,7.992235 3.09782944,7.23086951 3.56616081,6.76092384 C4.03524938,6.29021837 4.79636295,6.29021837 5.26545152,6.76092384 L8.80263158,10.3102962 Z" id="合并形状"></path>
                </g>
            </g>
        </g>
    </g>
</svg>