<?xml version="1.0" encoding="UTF-8"?>
<svg width="20px" height="22px" viewBox="0 0 20 22" version="1.1" xmlns="http://www.w3.org/2000/svg" xmlns:xlink="http://www.w3.org/1999/xlink">
    <!-- Generator: Sketch 52.2 (67145) - http://www.bohemiancoding.com/sketch -->
    <title>首页我的—未点击@2x</title>
    <desc>Created with Sketch.</desc>
    <g id="V2.1" stroke="none" stroke-width="1" fill="none" fill-rule="evenodd">
        <g id="V2.1首页——regular" transform="translate(-271.000000, -625.000000)">
            <g id="分组-3-copy-2" transform="translate(0.000000, 618.000000)">
                <g id="分组-3" transform="translate(267.000000, 4.000000)">
                    <g id="首页我的—未点击">
                        <g id="分组" stroke-width="1" fill-rule="evenodd"></g>
                        <path d="M14.0583333,12.8333333 C15.9591133,12.8333333 17.5,11.2924467 17.5,9.39166667 C17.5,7.49088665 15.9591133,5.95 14.0583333,5.95 C12.1575533,5.95 10.6166667,7.49088665 10.6166667,9.39166667 C10.6166667,11.2924467 12.1575533,12.8333333 14.0583333,12.8333333 Z M14.0583333,15.1666667 C10.8044557,15.1666667 8.16666667,12.5549944 8.16666667,9.33333333 C8.16666667,6.11167229 10.8044557,3.5 14.0583333,3.5 C17.312211,3.5 19.95,6.11167229 19.95,9.33333333 C19.95,12.5549944 17.312211,15.1666667 14.0583333,15.1666667 Z M7,24.5 L4.66666667,24.5 C4.66666667,19.3453423 8.84534234,15.1666667 14,15.1666667 C19.1546577,15.1666667 23.3333333,19.3453423 23.3333333,24.5 L21,24.5 C21,20.6340068 17.8659932,17.5 14,17.5 C10.1340068,17.5 7,20.6340068 7,24.5 Z" id="Combined-Shape" fill="#999999" fill-rule="nonzero"></path>
                    </g>
                </g>
            </g>
        </g>
    </g>
</svg>