<?xml version="1.0" encoding="UTF-8"?>
<svg width="20px" height="22px" viewBox="0 0 20 22" version="1.1" xmlns="http://www.w3.org/2000/svg" xmlns:xlink="http://www.w3.org/1999/xlink">
    <!-- Generator: Sketch 52.2 (67145) - http://www.bohemiancoding.com/sketch -->
    <title>首页我的—未点击@2x</title>
    <desc>Created with Sketch.</desc>
    <g id="V2.1" stroke="none" stroke-width="1" fill="none" fill-rule="evenodd">
        <g id="V2.1首页——regular" transform="translate(-271.000000, -625.000000)" fill="#CA0C16" fill-rule="nonzero">
            <g id="分组-3-copy-2" transform="translate(0.000000, 618.000000)">
                <g id="分组-3" transform="translate(267.000000, 4.000000)">
                    <g id="首页我的—点击">
                        <path d="M6.37057115,24.5 L5.81050297,24.5 C4.87858478,24.5 4.59358365,23.6341349 4.68191556,23.0671265 C5.37896871,18.5926962 9.28912952,15.1666667 14.0083678,15.1666667 C18.7796447,15.1666667 22.69535,18.6686699 23.3233235,23.2155233 C23.3969349,23.7485081 23.0665829,24.4686569 22.2648391,24.4990076 L6.37057115,24.5 Z M14.0083678,15.1666667 C10.7509332,15.1666667 8.11026074,12.5549944 8.11026074,9.33333333 C8.11026074,6.11167229 10.7509332,3.5 14.0083678,3.5 C17.2658024,3.5 19.9064749,6.11167229 19.9064749,9.33333333 C19.9064749,12.5549944 17.2658024,15.1666667 14.0083678,15.1666667 Z" id="合并形状"></path>
                    </g>
                </g>
            </g>
        </g>
    </g>
</svg>