<?xml version="1.0" encoding="UTF-8"?>
<svg width="244px" height="244px" viewBox="0 0 244 244" version="1.1" xmlns="http://www.w3.org/2000/svg" xmlns:xlink="http://www.w3.org/1999/xlink">
    <!-- Generator: Sketch 52.2 (67145) - http://www.bohemiancoding.com/sketch -->
    <title>分组 4@2x</title>
    <desc>Created with Sketch.</desc>
    <g id="组件" stroke="none" stroke-width="1" fill="none" fill-rule="evenodd">
        <g id="带白底">
            <g id="分组-4">
                <circle id="椭圆形" fill="#FFFFFF" fill-rule="nonzero" cx="122" cy="122" r="122"></circle>
                <g id="企业认证" transform="translate(2.000000, 2.000000)">
                    <polygon id="Star-Copy" fill="#2E98FF" points="120 216.292427 104.161556 220 90.2440035 211.579541 74.0350452 210.211303 63.4007312 197.90221 48.4079044 191.592096 42.0977898 176.599269 29.7886967 165.964955 28.4204594 149.755997 20 135.838444 23.7075725 120 20 104.161556 28.4204594 90.2440035 29.7886967 74.0350452 42.0977898 63.4007312 48.4079044 48.4079044 63.4007312 42.0977898 74.0350452 29.7886967 90.2440035 28.4204594 104.161556 20 120 23.7075725 135.838444 20 149.755997 28.4204594 165.964955 29.7886967 176.599269 42.0977898 191.592096 48.4079044 197.90221 63.4007312 210.211303 74.0350452 211.579541 90.2440035 220 104.161556 216.292427 120 220 135.838444 211.579541 149.755997 210.211303 165.964955 197.90221 176.599269 191.592096 191.592096 176.599269 197.90221 165.964955 210.211303 149.755997 211.579541 135.838444 220"></polygon>
                    <circle id="Oval-4" fill="#FFFFFF" cx="120" cy="120" r="75"></circle>
                    <polygon id="Path-53" fill="#2E98FF" fill-rule="nonzero" points="158.764848 83.4003827 175.264007 99.8995409 108.511068 166.652479 70.2994118 128.440823 86.79857 111.941664 108.511068 133.654163"></polygon>
                </g>
            </g>
        </g>
    </g>
</svg>