<?xml version="1.0" encoding="UTF-8"?>
<svg width="14px" height="14px" viewBox="0 0 14 14" version="1.1" xmlns="http://www.w3.org/2000/svg" xmlns:xlink="http://www.w3.org/1999/xlink">
    <!-- Generator: Sketch 52.2 (67145) - http://www.bohemiancoding.com/sketch -->
    <title>搜索@2x</title>
    <desc>Created with Sketch.</desc>
    <g id="V2.1" stroke="none" stroke-width="1" fill="none" fill-rule="evenodd">
        <g id="V2.1首页——regular" transform="translate(-26.000000, -35.000000)" fill="#999999">
            <g id="分组-2" transform="translate(16.000000, 26.000000)">
                <g id="分组" transform="translate(8.000000, 6.000000)">
                    <g id="搜索——首页用" transform="translate(0.000000, 1.000000)">
                        <g id="分组">
                            <path d="M12.3053301,11.2446699 L15.3812446,14.3205844 C15.6741378,14.6134776 15.6741378,15.0883514 15.3812446,15.3812446 C15.0883514,15.6741378 14.6134776,15.6741378 14.3205844,15.3812446 L11.2446699,12.3053301 C11.240885,12.3015452 11.237149,12.2977299 11.2334619,12.293885 C10.3010513,13.0036313 9.13723363,13.425 7.875,13.425 C4.80981964,13.425 2.325,10.9401804 2.325,7.875 C2.325,4.80981964 4.80981964,2.325 7.875,2.325 C10.9401804,2.325 13.425,4.80981964 13.425,7.875 C13.425,9.13723363 13.0036313,10.3010513 12.293885,11.2334619 C12.2977299,11.237149 12.3015452,11.240885 12.3053301,11.2446699 Z M7.875,11.925 C10.1117532,11.925 11.925,10.1117532 11.925,7.875 C11.925,5.63824676 10.1117532,3.825 7.875,3.825 C5.63824676,3.825 3.825,5.63824676 3.825,7.875 C3.825,10.1117532 5.63824676,11.925 7.875,11.925 Z" id="Combined-Shape" fill-rule="nonzero"></path>
                        </g>
                    </g>
                </g>
            </g>
        </g>
    </g>
</svg>