<?xml version="1.0" encoding="UTF-8"?>
<svg width="22px" height="22px" viewBox="0 0 22 22" version="1.1" xmlns="http://www.w3.org/2000/svg" xmlns:xlink="http://www.w3.org/1999/xlink">
    <!-- Generator: Sketch 52.2 (67145) - http://www.bohemiancoding.com/sketch -->
    <title>分组 11@2x</title>
    <desc>Created with Sketch.</desc>
    <g id="V2.1" stroke="none" stroke-width="1" fill="none" fill-rule="evenodd">
        <g id="个人中心" transform="translate(-16.000000, -528.000000)" fill-rule="nonzero">
            <g id="分组-11" transform="translate(16.000000, 528.000000)">
                <rect id="矩形" fill="#9FA6B8" x="0" y="0" width="22" height="22" rx="4"></rect>
                <g id="V2.1设置" transform="translate(1.000000, 1.000000)" fill="#FFFFFF">
                    <path d="M16.0488924,10.8003333 C16.0814474,10.539 16.1058637,10.2776667 16.1058637,10 C16.1058637,9.72233333 16.0814474,9.461 16.0488924,9.19966667 L17.7661696,7.85216667 C17.9208059,7.72966667 17.9614997,7.50916667 17.8638347,7.3295 L16.2360837,4.50383333 C16.1384187,4.32416667 15.9186723,4.25883333 15.7396197,4.32416667 L13.7130698,5.14083333 C13.2898545,4.81416667 12.8340843,4.54466667 12.3376202,4.3405 L12.0283476,2.17633333 C12.0039313,1.98033333 11.8330174,1.83333333 11.6295486,1.83333333 L8.37404671,1.83333333 C8.17057784,1.83333333 7.99966399,1.98033333 7.97524773,2.17633333 L7.66597505,4.3405 C7.16951102,4.54466667 6.71374075,4.82233333 6.29052551,5.14083333 L4.2639756,4.32416667 C4.07678424,4.25066667 3.86517662,4.32416667 3.76751156,4.50383333 L2.13976062,7.3295 C2.03395681,7.50916667 2.08278934,7.72966667 2.23742568,7.85216667 L3.95470292,9.19966667 C3.9221479,9.461 3.89773164,9.7305 3.89773164,10 C3.89773164,10.2695 3.9221479,10.539 3.95470292,10.8003333 L2.23742568,12.1478333 C2.08278934,12.2703333 2.04209557,12.4908333 2.13976062,12.6705 L3.76751156,15.4961667 C3.86517662,15.6758333 4.08492299,15.7411667 4.2639756,15.6758333 L6.29052551,14.8591667 C6.71374075,15.1858333 7.16951102,15.4553333 7.66597505,15.6595 L7.97524773,17.8236667 C7.99966399,18.0196667 8.17057784,18.1666667 8.37404671,18.1666667 L11.6295486,18.1666667 C11.8330174,18.1666667 12.0039313,18.0196667 12.0283476,17.8236667 L12.3376202,15.6595 C12.8340843,15.4553333 13.2898545,15.1776667 13.7130698,14.8591667 L15.7396197,15.6758333 C15.926811,15.7493333 16.1384187,15.6758333 16.2360837,15.4961667 L17.8638347,12.6705 C17.9614997,12.4908333 17.9208059,12.2703333 17.7661696,12.1478333 L16.0488924,10.8003333 Z M10,13.3333333 C8.16190476,13.3333333 6.66666667,11.8380952 6.66666667,10 C6.66666667,8.16190476 8.16190476,6.66666667 10,6.66666667 C11.8380952,6.66666667 13.3333333,8.16190476 13.3333333,10 C13.3333333,11.8380952 11.8380952,13.3333333 10,13.3333333 Z" id="Shape"></path>
                </g>
            </g>
        </g>
    </g>
</svg>