<?xml version="1.0" encoding="UTF-8"?>
<svg width="22px" height="22px" viewBox="0 0 22 22" version="1.1" xmlns="http://www.w3.org/2000/svg" xmlns:xlink="http://www.w3.org/1999/xlink">
    <!-- Generator: Sketch 52.2 (67145) - http://www.bohemiancoding.com/sketch -->
    <title>分组</title>
    <desc>Created with Sketch.</desc>
    <g id="组件" stroke="none" stroke-width="1" fill="none" fill-rule="evenodd">
        <g id="评论新页工具栏——展开-copy" transform="translate(-338.000000, -110.000000)">
            <g id="分组" transform="translate(339.000000, 111.000000)">
                <circle id="Oval-6-Copy" stroke="#4D4D4D" stroke-width="1.4" cx="10" cy="10" r="10"></circle>
                <path d="M14.0909091,4.54545455 C14.8443182,4.54545455 15.4545455,5.46113636 15.4545455,6.59090909 C15.4545455,7.72068182 14.8443182,8.63636364 14.0909091,8.63636364 C13.3375,8.63636364 12.7272727,7.72068182 12.7272727,6.59090909 C12.7272727,5.46113636 13.3375,4.54545455 14.0909091,4.54545455 Z M5.90909091,4.54545455 C6.6625,4.54545455 7.27272727,5.46113636 7.27272727,6.59090909 C7.27272727,7.72068182 6.6625,8.63636364 5.90909091,8.63636364 C5.15568182,8.63636364 4.54545455,7.72068182 4.54545455,6.59090909 C4.54545455,5.46113636 5.15568182,4.54545455 5.90909091,4.54545455 Z" id="创作中心_表情_14" fill="#4D4D4D"></path>
                <path d="M10,12.7272727 C13.7015566,12.7272727 15.0909091,11.8181818 16.3636364,10.4545455 C16.0740909,14.2563636 13.8181818,16.8175 10,16.8175 C6.18181818,16.8175 3.92654545,13.6363636 3.63636364,10.4545455 C4.90909091,11.8181818 6.29844342,12.7272727 10,12.7272727 Z" id="Path" stroke="#4D4D4D" stroke-width="1.4" stroke-linejoin="round"></path>
            </g>
        </g>
    </g>
</svg>