<?xml version="1.0" encoding="UTF-8"?>
<svg width="20px" height="20px" viewBox="0 0 20 20" version="1.1" xmlns="http://www.w3.org/2000/svg" xmlns:xlink="http://www.w3.org/1999/xlink">
    <!-- Generator: Sketch 52.2 (67145) - http://www.bohemiancoding.com/sketch -->
    <title>icon / blin / comment_w@2x</title>
    <desc>Created with Sketch.</desc>
    <g id="组件" stroke="none" stroke-width="1" fill="none" fill-rule="evenodd">
        <g id="V2.2评论框" transform="translate(-18.000000, -15.000000)">
            <g id="icon-/-blin-/-comment_w" transform="translate(16.000000, 12.000000)">
                <path d="M9.84615385,19 L6.58549055,21.3549235 C6.13776478,21.678281 5.51267828,21.5774606 5.18932077,21.1297348 C5.06624412,20.959321 5,20.7544554 5,20.5442443 L5,18.0003662 C3.7855533,17.0881599 3,15.6358178 3,14 L3,9 C3,6.23857625 5.23857625,4 8,4 L16,4 C18.7614237,4 21,6.23857625 21,9 L21,14 C21,16.7614237 18.7614237,19 16,19 L9.84615385,19 Z" id="Combined-Shape" stroke="#CCCCCC" stroke-width="2" stroke-linecap="round" stroke-linejoin="round"></path>
                <rect id="切图" x="0" y="0" width="24" height="24"></rect>
            </g>
        </g>
    </g>
</svg>