<svg height="21" viewBox="0 0 21 21" width="21" xmlns="http://www.w3.org/2000/svg"><g fill="none" fill-rule="evenodd"><g fill-rule="evenodd" stroke="#ccc" stroke-linecap="round" stroke-linejoin="round" stroke-width="2" transform="translate(1 1)"><path d="m6 6c3.18139453 0 4.5-2.5 4.5-4.5 0-1.5 2.0910301-1.81909019 3-.5.5883589.85382192.9490165 2.7241141-.2214775 5h3.3760393c1.1045695 0 2 .8954305 2 2 0 .10582568-.0083993.21148443-.0251188.315981l-1.1579177 7.2369858c-.2716704 1.6979398-1.7365061 2.9470332-3.4560422 2.9470332h-8.16909331c-1.04272147 0-1.9104785-.8011089-1.99363055-1.8405096l-.68-8.49999996c-.08808414-1.10105175.73308835-2.06503686 1.83414011-2.153121.05305754-.0042446.10626339-.00636944.15949044-.00636944z"/><path d="m0 6 1 12.5"/></g><path d="m-2-1h24v24h-24z"/></g></svg>