<?xml version="1.0" encoding="UTF-8"?>
<svg width="21px" height="21px" viewBox="0 0 21 21" version="1.1" xmlns="http://www.w3.org/2000/svg" xmlns:xlink="http://www.w3.org/1999/xlink">
    <!-- Generator: Sketch 52.2 (67145) - http://www.bohemiancoding.com/sketch -->
    <title>icon / 点赞@2x</title>
    <desc>Created with Sketch.</desc>
    <g id="组件" stroke="none" stroke-width="1" fill="none" fill-rule="evenodd">
        <g id="V2.2评论框-Copy" transform="translate(-257.000000, -13.000000)">
            <g id="V2.2-已点赞" transform="translate(255.000000, 12.000000)">
                <g id="分组" stroke-width="1" fill-rule="evenodd" transform="translate(3.000000, 2.000000)" stroke="#CA0C16" stroke-linecap="round" stroke-linejoin="round">
                    <path d="M6,6 C9.18139453,6 10.5,3.5 10.5,1.5 C10.5,-3.71924713e-15 12.5910301,-0.31909019 13.5,1 C14.0883589,1.85382192 14.4490165,3.7241141 13.2785225,6 L16.6545618,6 C17.7591313,6 18.6545618,6.8954305 18.6545618,8 C18.6545618,8.10582568 18.6461625,8.21148443 18.629443,8.315981 L17.4715253,15.5529668 C17.1998549,17.2509066 15.7350192,18.5 14.0154831,18.5 L5.84638979,18.5 C4.80366832,18.5 3.93591129,17.6988911 3.85275924,16.6594904 L3.17275924,8.15949044 C3.0846751,7.05843869 3.90584759,6.09445358 5.00689935,6.00636944 C5.05995689,6.00212484 5.11316274,6 5.16638979,6 L6,6 Z" id="Combined-Shape" stroke-width="2" fill="#CA0C16"></path>
                    <path d="M0,6 L1,18.5" id="Path-5" stroke-width="2"></path>
                </g>
                <rect id="切图" x="0" y="0" width="24" height="24"></rect>
            </g>
        </g>
    </g>
</svg>