<?xml version="1.0" encoding="UTF-8"?>
<svg width="34px" height="16px" viewBox="0 0 34 16" version="1.1" xmlns="http://www.w3.org/2000/svg" xmlns:xlink="http://www.w3.org/1999/xlink">
    <!-- Generator: Sketch 52.5 (67469) - http://www.bohemiancoding.com/sketch -->
    <title>编组 11复制 4</title>
    <desc>Created with Sketch.</desc>
    <g id="页面1" stroke="none" stroke-width="1" fill="none" fill-rule="evenodd">
        <g id="编组-11复制-4">
            <rect id="矩形-copy-16" stroke="#AFB8C0" fill-rule="nonzero" x="0.5" y="0.5" width="33" height="15" rx="2"></rect>
            <path d="M10.61,4.72 C11.25,4.72 11.77,4.89 12.17,5.25 C12.57,5.6 12.77,6.08 12.77,6.68 C12.77,7.17 12.64,7.58 12.39,7.9 C12.3,8.01 12.02,8.27 11.55,8.68 C11.36,8.84 11.22,9.02 11.13,9.2 C11.02,9.4 10.97,9.62 10.97,9.86 L10.97,10.03 L9.9,10.03 L9.9,9.86 C9.9,9.49 9.96,9.17 10.1,8.91 C10.23,8.63 10.61,8.22 11.23,7.67 L11.4,7.48 C11.58,7.25 11.68,7.01 11.68,6.75 C11.68,6.4 11.58,6.13 11.39,5.93 C11.19,5.73 10.9,5.63 10.54,5.63 C10.09,5.63 9.76,5.77 9.56,6.06 C9.38,6.3 9.29,6.64 9.29,7.08 L8.24,7.08 C8.24,6.35 8.45,5.78 8.87,5.36 C9.29,4.93 9.87,4.72 10.61,4.72 Z M10.43,10.57 C10.64,10.57 10.82,10.63 10.96,10.77 C11.1,10.9 11.17,11.07 11.17,11.28 C11.17,11.49 11.09,11.66 10.95,11.8 C10.81,11.93 10.63,12 10.43,12 C10.23,12 10.05,11.93 9.91,11.79 C9.77,11.65 9.7,11.48 9.7,11.28 C9.7,11.07 9.77,10.9 9.91,10.77 C10.05,10.63 10.23,10.57 10.43,10.57 Z M15,12.52 L20,12.52 L20,13.4 L15,13.4 L15,12.52 Z M22.87,4.72 C23.52,4.72 24.04,4.89 24.44,5.25 C24.83,5.6 25.03,6.08 25.03,6.68 C25.03,7.17 24.9,7.58 24.66,7.9 C24.57,8.01 24.29,8.27 23.81,8.68 C23.63,8.84 23.49,9.01 23.4,9.19 C23.29,9.39 23.24,9.61 23.24,9.86 L23.24,10.03 L22.17,10.03 L22.17,9.86 C22.17,9.49 22.23,9.17 22.36,8.91 C22.5,8.63 22.88,8.22 23.5,7.67 L23.67,7.48 C23.85,7.25 23.94,7.01 23.94,6.75 C23.94,6.4 23.84,6.13 23.65,5.93 C23.45,5.73 23.17,5.63 22.81,5.63 C22.36,5.63 22.03,5.77 21.83,6.05 C21.65,6.29 21.56,6.64 21.56,7.08 L20.5,7.08 C20.5,6.35 20.71,5.78 21.14,5.36 C21.56,4.93 22.14,4.72 22.87,4.72 Z M22.7,10.57 C22.91,10.57 23.09,10.63 23.23,10.77 C23.37,10.9 23.44,11.07 23.44,11.28 C23.44,11.49 23.37,11.66 23.23,11.8 C23.08,11.93 22.9,12 22.7,12 C22.49,12 22.32,11.93 22.19,11.79 C22.04,11.65 21.97,11.48 21.97,11.28 C21.97,11.07 22.04,10.9 22.19,10.77 C22.32,10.63 22.49,10.57 22.7,10.57 Z" id="？_?" fill="#AFB8C0"></path>
        </g>
    </g>
</svg>